<svg width="256" height="30" viewBox="0 0 256 30" fill="none" xmlns="http://www.w3.org/2000/svg">
<path d="M17.134 0.599998C19.766 0.599998 22.062 1.048 24.022 1.944C25.982 2.84 27.48 4.058 28.516 5.598C29.552 7.138 30.07 8.86 30.07 10.764C30.07 13.9 29.09 16.364 27.13 18.156C25.17 19.92 21.838 20.802 17.134 20.802H11.59V28.866C11.59 29.174 11.478 29.44 11.254 29.664C11.03 29.888 10.764 30 10.456 30H1.426C1.118 30 0.852 29.888 0.628 29.664C0.404 29.44 0.292 29.174 0.292 28.866V1.734C0.292 1.426 0.404 1.16 0.628 0.935999C0.852 0.711998 1.118 0.599998 1.426 0.599998H17.134ZM16.966 13.032C17.638 13.032 18.17 12.836 18.562 12.444C18.954 12.024 19.15 11.478 19.15 10.806C19.15 10.106 18.954 9.532 18.562 9.084C18.17 8.636 17.638 8.412 16.966 8.412H11.632V13.032H16.966ZM60.0416 21.81C60.3496 21.81 60.6156 21.922 60.8396 22.146C61.0636 22.37 61.1756 22.636 61.1756 22.944V28.866C61.1756 29.174 61.0636 29.44 60.8396 29.664C60.6156 29.888 60.3496 30 60.0416 30H33.4976C33.1896 30 32.9236 29.888 32.6996 29.664C32.4756 29.44 32.3636 29.174 32.3636 28.866V1.734C32.3636 1.426 32.4756 1.16 32.6996 0.935999C32.9236 0.711998 33.1896 0.599998 33.4976 0.599998H59.6216C59.9296 0.599998 60.1956 0.711998 60.4196 0.935999C60.6436 1.16 60.7556 1.426 60.7556 1.734V7.656C60.7556 7.964 60.6436 8.23 60.4196 8.454C60.1956 8.678 59.9296 8.79 59.6216 8.79H43.2836V11.436H57.3116C57.6196 11.436 57.8856 11.548 58.1096 11.772C58.3336 11.996 58.4456 12.262 58.4456 12.57V18.03C58.4456 18.338 58.3336 18.604 58.1096 18.828C57.8856 19.052 57.6196 19.164 57.3116 19.164H43.2836V21.81H60.0416ZM94.5072 0.599998C94.8152 0.599998 95.0812 0.711998 95.3052 0.935999C95.5292 1.16 95.6412 1.426 95.6412 1.734V8.496C95.6412 8.804 95.5292 9.07 95.3052 9.294C95.0812 9.518 94.8152 9.63 94.5072 9.63H85.4772V28.866C85.4772 29.174 85.3652 29.44 85.1412 29.664C84.9172 29.888 84.6512 30 84.3432 30H75.6912C75.3832 30 75.1172 29.888 74.8932 29.664C74.6692 29.44 74.5572 29.174 74.5572 28.866V9.63H65.5272C65.2192 9.63 64.9532 9.518 64.7292 9.294C64.5052 9.07 64.3932 8.804 64.3932 8.496V1.734C64.3932 1.426 64.5052 1.16 64.7292 0.935999C64.9532 0.711998 65.2192 0.599998 65.5272 0.599998H94.5072ZM128.091 0.599998C128.399 0.599998 128.665 0.711998 128.889 0.935999C129.113 1.16 129.225 1.426 129.225 1.734V8.496C129.225 8.804 129.113 9.07 128.889 9.294C128.665 9.518 128.399 9.63 128.091 9.63H119.061V28.866C119.061 29.174 118.949 29.44 118.725 29.664C118.501 29.888 118.235 30 117.927 30H109.275C108.967 30 108.701 29.888 108.477 29.664C108.253 29.44 108.141 29.174 108.141 28.866V9.63H99.1108C98.8028 9.63 98.5368 9.518 98.3128 9.294C98.0888 9.07 97.9768 8.804 97.9768 8.496V1.734C97.9768 1.426 98.0888 1.16 98.3128 0.935999C98.5368 0.711998 98.8028 0.599998 99.1108 0.599998H128.091ZM137.776 28.572C137.412 29.524 136.782 30 135.886 30H127.948C127.696 30 127.472 29.916 127.276 29.748C127.108 29.552 127.024 29.328 127.024 29.076L127.066 28.824L136.222 1.986C136.334 1.622 136.544 1.3 136.852 1.02C137.16 0.739998 137.58 0.599998 138.112 0.599998H149.788C150.32 0.599998 150.74 0.739998 151.048 1.02C151.356 1.3 151.566 1.622 151.678 1.986L160.834 28.824L160.876 29.076C160.876 29.328 160.778 29.552 160.582 29.748C160.414 29.916 160.204 30 159.952 30H152.014C151.118 30 150.488 29.524 150.124 28.572L149.074 25.632H138.826L137.776 28.572ZM143.95 8.706L140.968 17.442H146.932L143.95 8.706ZM189.84 14.67C190.932 15.006 191.87 15.748 192.654 16.896C193.438 18.016 193.83 19.304 193.83 20.76C193.83 23.868 192.822 26.192 190.806 27.732C188.79 29.244 185.85 30 181.986 30H164.682C164.374 30 164.108 29.888 163.884 29.664C163.66 29.44 163.548 29.174 163.548 28.866V1.734C163.548 1.426 163.66 1.16 163.884 0.935999C164.108 0.711998 164.374 0.599998 164.682 0.599998H181.566C185.542 0.599998 188.468 1.328 190.344 2.784C192.248 4.212 193.2 6.382 193.2 9.294V9.42C193.2 10.764 192.836 11.912 192.108 12.864C191.38 13.816 190.624 14.418 189.84 14.67ZM181.818 9.672C181.818 9.168 181.664 8.734 181.356 8.37C181.076 8.006 180.656 7.824 180.096 7.824H174.468V11.646H180.096C180.656 11.646 181.076 11.45 181.356 11.058C181.664 10.638 181.818 10.176 181.818 9.672ZM180.558 22.776C181.202 22.776 181.678 22.566 181.986 22.146C182.322 21.698 182.49 21.208 182.49 20.676V20.634C182.49 20.102 182.308 19.64 181.944 19.248C181.608 18.856 181.146 18.66 180.558 18.66H174.468V22.776H180.558ZM222.584 21.39C222.892 21.39 223.158 21.502 223.382 21.726C223.606 21.95 223.718 22.216 223.718 22.524V28.866C223.718 29.174 223.606 29.44 223.382 29.664C223.158 29.888 222.892 30 222.584 30H198.056C197.748 30 197.482 29.888 197.258 29.664C197.034 29.44 196.922 29.174 196.922 28.866V1.734C196.922 1.426 197.034 1.16 197.258 0.935999C197.482 0.711998 197.748 0.599998 198.056 0.599998H207.128C207.436 0.599998 207.702 0.711998 207.926 0.935999C208.15 1.16 208.262 1.426 208.262 1.734V21.39H222.584ZM254.403 21.81C254.711 21.81 254.977 21.922 255.201 22.146C255.425 22.37 255.537 22.636 255.537 22.944V28.866C255.537 29.174 255.425 29.44 255.201 29.664C254.977 29.888 254.711 30 254.403 30H227.859C227.551 30 227.285 29.888 227.061 29.664C226.837 29.44 226.725 29.174 226.725 28.866V1.734C226.725 1.426 226.837 1.16 227.061 0.935999C227.285 0.711998 227.551 0.599998 227.859 0.599998H253.983C254.291 0.599998 254.557 0.711998 254.781 0.935999C255.005 1.16 255.117 1.426 255.117 1.734V7.656C255.117 7.964 255.005 8.23 254.781 8.454C254.557 8.678 254.291 8.79 253.983 8.79H237.645V11.436H251.673C251.981 11.436 252.247 11.548 252.471 11.772C252.695 11.996 252.807 12.262 252.807 12.57V18.03C252.807 18.338 252.695 18.604 252.471 18.828C252.247 19.052 251.981 19.164 251.673 19.164H237.645V21.81H254.403Z" fill="#EBFFF3"/>
</svg>
