<svg width="187" height="31" viewBox="0 0 187 31" fill="none" xmlns="http://www.w3.org/2000/svg">
<path d="M1.444 30C1.136 30 0.87 29.888 0.646 29.664C0.422 29.44 0.31 29.174 0.31 28.866V1.734C0.31 1.426 0.422 1.16 0.646 0.935999C0.87 0.711998 1.136 0.599998 1.444 0.599998H14.17C16.718 0.599998 18.93 0.977998 20.806 1.734C22.71 2.462 24.18 3.596 25.216 5.136C26.28 6.648 26.812 8.566 26.812 10.89C26.812 13.214 26.28 15.118 25.216 16.602C24.18 18.058 22.71 19.136 20.806 19.836C18.93 20.508 16.718 20.844 14.17 20.844H11.23V28.866C11.23 29.174 11.118 29.44 10.894 29.664C10.67 29.888 10.404 30 10.096 30H1.444ZM11.02 13.074H13.96C14.408 13.074 14.842 12.906 15.262 12.57C15.682 12.206 15.892 11.618 15.892 10.806C15.892 10.274 15.752 9.742 15.472 9.21C15.22 8.678 14.716 8.412 13.96 8.412H11.02V13.074ZM39.7152 30.42C36.0472 30.42 33.1212 29.524 30.9372 27.732C28.7812 25.912 27.7032 23.042 27.7032 19.122C27.7032 19.066 27.7032 19.01 27.7032 18.954C27.7032 18.898 27.7032 18.856 27.7032 18.828C27.7592 16.42 28.2772 14.39 29.2572 12.738C30.2652 11.086 31.6512 9.84 33.4152 9C35.2072 8.16 37.2932 7.74 39.6732 7.74C42.4172 7.74 44.6712 8.272 46.4352 9.336C48.1992 10.372 49.5012 11.758 50.3412 13.494C51.2092 15.202 51.6432 17.092 51.6432 19.164V20.424C51.6432 20.732 51.5312 20.998 51.3072 21.222C51.0832 21.446 50.8172 21.558 50.5092 21.558H37.9932C37.9932 21.586 37.9932 21.614 37.9932 21.642C37.9932 21.67 37.9932 21.712 37.9932 21.768C37.9932 22.328 38.0352 22.804 38.1192 23.196C38.2312 23.56 38.4132 23.84 38.6652 24.036C38.9172 24.232 39.2392 24.33 39.6312 24.33C39.7992 24.33 39.9392 24.302 40.0512 24.246C40.1912 24.19 40.3172 24.106 40.4292 23.994C40.5692 23.854 40.7092 23.714 40.8492 23.574C41.1012 23.322 41.3112 23.168 41.4792 23.112C41.6472 23.028 41.8992 22.986 42.2352 22.986H50.1732C50.4532 22.986 50.6772 23.07 50.8452 23.238C51.0412 23.406 51.1252 23.63 51.0972 23.91C51.0692 24.442 50.8172 25.086 50.3412 25.842C49.8932 26.57 49.2072 27.284 48.2832 27.984C47.3592 28.684 46.1832 29.272 44.7552 29.748C43.3272 30.196 41.6472 30.42 39.7152 30.42ZM37.9932 16.308H41.3532V16.266C41.3532 15.65 41.2832 15.146 41.1432 14.754C41.0312 14.362 40.8492 14.082 40.5972 13.914C40.3452 13.718 40.0372 13.62 39.6732 13.62C39.3092 13.62 39.0012 13.718 38.7492 13.914C38.4972 14.082 38.3012 14.362 38.1612 14.754C38.0492 15.146 37.9932 15.65 37.9932 16.266V16.308ZM67.2692 30C65.2532 30 63.4472 29.734 61.8512 29.202C60.2832 28.642 59.0372 27.704 58.1132 26.388C57.2172 25.072 56.7692 23.266 56.7692 20.97V15.51H53.4512C53.1432 15.51 52.8772 15.398 52.6532 15.174C52.4292 14.95 52.3172 14.684 52.3172 14.376V9.294C52.3172 8.986 52.4292 8.72 52.6532 8.496C52.8772 8.272 53.1432 8.16 53.4512 8.16H56.7692V1.314C56.7692 1.006 56.8812 0.74 57.1052 0.515999C57.3292 0.291999 57.5952 0.179998 57.9032 0.179998H65.2532C65.5612 0.179998 65.8272 0.291999 66.0512 0.515999C66.2752 0.74 66.3872 1.006 66.3872 1.314V8.16H71.6792C71.9872 8.16 72.2532 8.272 72.4772 8.496C72.7012 8.72 72.8132 8.986 72.8132 9.294V14.376C72.8132 14.684 72.7012 14.95 72.4772 15.174C72.2532 15.398 71.9872 15.51 71.6792 15.51H66.3872V20.13C66.3872 20.774 66.5272 21.292 66.8072 21.684C67.1152 22.048 67.5772 22.23 68.1932 22.23H72.0152C72.3232 22.23 72.5892 22.342 72.8132 22.566C73.0372 22.79 73.1492 23.056 73.1492 23.364V28.866C73.1492 29.174 73.0372 29.44 72.8132 29.664C72.5892 29.888 72.3232 30 72.0152 30H67.2692ZM89.6227 30C87.6067 30 85.8007 29.734 84.2047 29.202C82.6367 28.642 81.3907 27.704 80.4667 26.388C79.5707 25.072 79.1227 23.266 79.1227 20.97V15.51H75.8047C75.4967 15.51 75.2307 15.398 75.0067 15.174C74.7827 14.95 74.6707 14.684 74.6707 14.376V9.294C74.6707 8.986 74.7827 8.72 75.0067 8.496C75.2307 8.272 75.4967 8.16 75.8047 8.16H79.1227V1.314C79.1227 1.006 79.2347 0.74 79.4587 0.515999C79.6827 0.291999 79.9487 0.179998 80.2567 0.179998H87.6067C87.9147 0.179998 88.1807 0.291999 88.4047 0.515999C88.6287 0.74 88.7407 1.006 88.7407 1.314V8.16H94.0327C94.3407 8.16 94.6067 8.272 94.8307 8.496C95.0547 8.72 95.1667 8.986 95.1667 9.294V14.376C95.1667 14.684 95.0547 14.95 94.8307 15.174C94.6067 15.398 94.3407 15.51 94.0327 15.51H88.7407V20.13C88.7407 20.774 88.8807 21.292 89.1607 21.684C89.4687 22.048 89.9307 22.23 90.5467 22.23H94.3687C94.6767 22.23 94.9427 22.342 95.1667 22.566C95.3907 22.79 95.5027 23.056 95.5027 23.364V28.866C95.5027 29.174 95.3907 29.44 95.1667 29.664C94.9427 29.888 94.6767 30 94.3687 30H89.6227ZM105.424 30.42C103.828 30.42 102.414 30.126 101.182 29.538C99.9502 28.95 98.9842 28.152 98.2842 27.144C97.6122 26.136 97.2762 25.002 97.2762 23.742C97.2762 21.698 98.1022 20.102 99.7542 18.954C101.434 17.778 103.674 16.952 106.474 16.476L110.926 15.762V15.72C110.926 14.992 110.856 14.46 110.716 14.124C110.604 13.788 110.254 13.62 109.666 13.62C109.274 13.62 108.952 13.704 108.7 13.872C108.476 14.012 108.224 14.222 107.944 14.502C107.636 14.81 107.244 14.964 106.768 14.964H99.6282C99.3482 14.964 99.1102 14.88 98.9142 14.712C98.7462 14.544 98.6762 14.32 98.7042 14.04C98.7322 13.508 98.9562 12.892 99.3762 12.192C99.7962 11.464 100.44 10.764 101.308 10.092C102.204 9.42 103.338 8.86 104.71 8.412C106.11 7.964 107.79 7.74 109.75 7.74C111.654 7.74 113.306 7.95 114.706 8.37C116.134 8.762 117.31 9.35 118.234 10.134C119.158 10.89 119.844 11.842 120.292 12.99C120.768 14.11 121.006 15.384 121.006 16.812V28.866C121.006 29.174 120.894 29.44 120.67 29.664C120.446 29.888 120.18 30 119.872 30H112.522C112.214 30 111.948 29.888 111.724 29.664C111.5 29.44 111.388 29.174 111.388 28.866V27.69C110.996 28.25 110.492 28.74 109.876 29.16C109.288 29.552 108.616 29.86 107.86 30.084C107.104 30.308 106.292 30.42 105.424 30.42ZM108.322 24.204C108.882 24.204 109.358 24.092 109.75 23.868C110.17 23.644 110.492 23.294 110.716 22.818C110.94 22.314 111.052 21.698 111.052 20.97V20.928L108.574 21.474C107.846 21.642 107.356 21.866 107.104 22.146C106.852 22.426 106.726 22.72 106.726 23.028C106.726 23.224 106.782 23.42 106.894 23.616C107.034 23.784 107.216 23.924 107.44 24.036C107.692 24.148 107.986 24.204 108.322 24.204ZM139.363 30.42C137.907 30.42 136.675 30.196 135.667 29.748C134.659 29.272 133.819 28.656 133.147 27.9V28.866C133.147 29.174 133.035 29.44 132.811 29.664C132.587 29.888 132.321 30 132.013 30H124.873C124.565 30 124.299 29.888 124.075 29.664C123.851 29.44 123.739 29.174 123.739 28.866V1.314C123.739 1.006 123.851 0.74 124.075 0.515999C124.299 0.291999 124.565 0.179998 124.873 0.179998H132.643C132.951 0.179998 133.217 0.291999 133.441 0.515999C133.665 0.74 133.777 1.006 133.777 1.314V9.714C134.449 9.098 135.247 8.622 136.171 8.286C137.123 7.922 138.187 7.74 139.363 7.74C140.595 7.74 141.729 7.936 142.765 8.328C143.829 8.72 144.753 9.308 145.537 10.092C146.349 10.876 146.993 11.884 147.469 13.116C147.945 14.32 148.211 15.748 148.267 17.4C148.295 18.016 148.309 18.562 148.309 19.038C148.309 19.514 148.295 20.074 148.267 20.718C148.183 22.482 147.903 23.98 147.427 25.212C146.951 26.444 146.307 27.452 145.495 28.236C144.711 28.992 143.801 29.552 142.765 29.916C141.729 30.252 140.595 30.42 139.363 30.42ZM135.877 22.902C136.409 22.902 136.815 22.804 137.095 22.608C137.375 22.412 137.571 22.132 137.683 21.768C137.823 21.404 137.921 20.97 137.977 20.466C138.061 19.542 138.061 18.618 137.977 17.694C137.921 17.19 137.823 16.756 137.683 16.392C137.571 16.028 137.375 15.748 137.095 15.552C136.815 15.356 136.409 15.258 135.877 15.258C135.401 15.258 135.009 15.342 134.701 15.51C134.421 15.678 134.197 15.916 134.029 16.224C133.889 16.532 133.805 16.91 133.777 17.358C133.749 17.974 133.735 18.492 133.735 18.912C133.735 19.304 133.749 19.822 133.777 20.466C133.805 20.97 133.875 21.404 133.987 21.768C134.127 22.132 134.351 22.412 134.659 22.608C134.967 22.804 135.373 22.902 135.877 22.902ZM151.801 30C151.493 30 151.227 29.888 151.003 29.664C150.779 29.44 150.667 29.174 150.667 28.866V1.314C150.667 1.006 150.779 0.74 151.003 0.515999C151.227 0.291999 151.493 0.179998 151.801 0.179998H159.319C159.627 0.179998 159.893 0.291999 160.117 0.515999C160.341 0.74 160.453 1.006 160.453 1.314V28.866C160.453 29.174 160.341 29.44 160.117 29.664C159.893 29.888 159.627 30 159.319 30H151.801ZM174.701 30.42C171.033 30.42 168.107 29.524 165.923 27.732C163.767 25.912 162.689 23.042 162.689 19.122C162.689 19.066 162.689 19.01 162.689 18.954C162.689 18.898 162.689 18.856 162.689 18.828C162.745 16.42 163.263 14.39 164.243 12.738C165.251 11.086 166.637 9.84 168.401 9C170.193 8.16 172.279 7.74 174.659 7.74C177.403 7.74 179.657 8.272 181.421 9.336C183.185 10.372 184.487 11.758 185.327 13.494C186.195 15.202 186.629 17.092 186.629 19.164V20.424C186.629 20.732 186.517 20.998 186.293 21.222C186.069 21.446 185.803 21.558 185.495 21.558H172.979C172.979 21.586 172.979 21.614 172.979 21.642C172.979 21.67 172.979 21.712 172.979 21.768C172.979 22.328 173.021 22.804 173.105 23.196C173.217 23.56 173.399 23.84 173.651 24.036C173.903 24.232 174.225 24.33 174.617 24.33C174.785 24.33 174.925 24.302 175.037 24.246C175.177 24.19 175.303 24.106 175.415 23.994C175.555 23.854 175.695 23.714 175.835 23.574C176.087 23.322 176.297 23.168 176.465 23.112C176.633 23.028 176.885 22.986 177.221 22.986H185.159C185.439 22.986 185.663 23.07 185.831 23.238C186.027 23.406 186.111 23.63 186.083 23.91C186.055 24.442 185.803 25.086 185.327 25.842C184.879 26.57 184.193 27.284 183.269 27.984C182.345 28.684 181.169 29.272 179.741 29.748C178.313 30.196 176.633 30.42 174.701 30.42ZM172.979 16.308H176.339V16.266C176.339 15.65 176.269 15.146 176.129 14.754C176.017 14.362 175.835 14.082 175.583 13.914C175.331 13.718 175.023 13.62 174.659 13.62C174.295 13.62 173.987 13.718 173.735 13.914C173.483 14.082 173.287 14.362 173.147 14.754C173.035 15.146 172.979 15.65 172.979 16.266V16.308Z" fill="#EBFFF3"/>
</svg>
