<svg width="187" height="31" viewBox="0 0 187 31" fill="none" xmlns="http://www.w3.org/2000/svg">
<g clip-path="url(#clip0_731_92)">
<path d="M1.44406 30C1.13606 30 0.870059 29.888 0.646059 29.664C0.422059 29.44 0.310059 29.174 0.310059 28.866V1.73399C0.310059 1.42599 0.422059 1.15999 0.646059 0.935994C0.870059 0.711993 1.13606 0.599993 1.44406 0.599993H14.1701C16.7181 0.599993 18.9301 0.977993 20.8061 1.73399C22.7101 2.46199 24.1801 3.59599 25.2161 5.13599C26.2801 6.64799 26.8121 8.56599 26.8121 10.89C26.8121 13.214 26.2801 15.118 25.2161 16.602C24.1801 18.058 22.7101 19.136 20.8061 19.836C18.9301 20.508 16.7181 20.844 14.1701 20.844H11.2301V28.866C11.2301 29.174 11.1181 29.44 10.8941 29.664C10.6701 29.888 10.4041 30 10.0961 30H1.44406ZM11.0201 13.074H13.9601C14.4081 13.074 14.8421 12.906 15.2621 12.57C15.6821 12.206 15.8921 11.618 15.8921 10.806C15.8921 10.274 15.7521 9.74199 15.4721 9.20999C15.2201 8.67799 14.7161 8.41199 13.9601 8.41199H11.0201V13.074ZM39.7153 30.42C36.0473 30.42 33.1213 29.524 30.9373 27.732C28.7813 25.912 27.7033 23.042 27.7033 19.122C27.7033 19.066 27.7033 19.01 27.7033 18.954C27.7033 18.898 27.7033 18.856 27.7033 18.828C27.7593 16.42 28.2773 14.39 29.2573 12.738C30.2653 11.086 31.6513 9.83999 33.4153 8.99999C35.2073 8.15999 37.2933 7.73999 39.6733 7.73999C42.4173 7.73999 44.6713 8.27199 46.4353 9.33599C48.1993 10.372 49.5013 11.758 50.3413 13.494C51.2093 15.202 51.6433 17.092 51.6433 19.164V20.424C51.6433 20.732 51.5313 20.998 51.3073 21.222C51.0833 21.446 50.8173 21.558 50.5093 21.558H37.9933C37.9933 21.586 37.9933 21.614 37.9933 21.642C37.9933 21.67 37.9933 21.712 37.9933 21.768C37.9933 22.328 38.0353 22.804 38.1193 23.196C38.2313 23.56 38.4133 23.84 38.6653 24.036C38.9173 24.232 39.2393 24.33 39.6313 24.33C39.7993 24.33 39.9393 24.302 40.0513 24.246C40.1913 24.19 40.3173 24.106 40.4293 23.994C40.5693 23.854 40.7093 23.714 40.8493 23.574C41.1013 23.322 41.3113 23.168 41.4793 23.112C41.6473 23.028 41.8993 22.986 42.2353 22.986H50.1733C50.4533 22.986 50.6773 23.07 50.8453 23.238C51.0413 23.406 51.1253 23.63 51.0973 23.91C51.0693 24.442 50.8173 25.086 50.3413 25.842C49.8933 26.57 49.2073 27.284 48.2833 27.984C47.3593 28.684 46.1833 29.272 44.7553 29.748C43.3273 30.196 41.6473 30.42 39.7153 30.42ZM37.9933 16.308H41.3533V16.266C41.3533 15.65 41.2833 15.146 41.1433 14.754C41.0313 14.362 40.8493 14.082 40.5973 13.914C40.3453 13.718 40.0373 13.62 39.6733 13.62C39.3093 13.62 39.0013 13.718 38.7493 13.914C38.4973 14.082 38.3013 14.362 38.1613 14.754C38.0493 15.146 37.9933 15.65 37.9933 16.266V16.308ZM67.2693 30C65.2533 30 63.4473 29.734 61.8513 29.202C60.2833 28.642 59.0373 27.704 58.1133 26.388C57.2173 25.072 56.7693 23.266 56.7693 20.97V15.51H53.4513C53.1433 15.51 52.8773 15.398 52.6533 15.174C52.4293 14.95 52.3173 14.684 52.3173 14.376V9.29399C52.3173 8.98599 52.4293 8.71999 52.6533 8.49599C52.8773 8.27199 53.1433 8.15999 53.4513 8.15999H56.7693V1.31399C56.7693 1.00599 56.8813 0.739995 57.1053 0.515994C57.3293 0.291994 57.5953 0.179993 57.9033 0.179993H65.2533C65.5613 0.179993 65.8273 0.291994 66.0513 0.515994C66.2753 0.739995 66.3873 1.00599 66.3873 1.31399V8.15999H71.6793C71.9873 8.15999 72.2533 8.27199 72.4773 8.49599C72.7013 8.71999 72.8133 8.98599 72.8133 9.29399V14.376C72.8133 14.684 72.7013 14.95 72.4773 15.174C72.2533 15.398 71.9873 15.51 71.6793 15.51H66.3873V20.13C66.3873 20.774 66.5273 21.292 66.8073 21.684C67.1153 22.048 67.5773 22.23 68.1933 22.23H72.0153C72.3233 22.23 72.5893 22.342 72.8133 22.566C73.0373 22.79 73.1493 23.056 73.1493 23.364V28.866C73.1493 29.174 73.0373 29.44 72.8133 29.664C72.5893 29.888 72.3233 30 72.0153 30H67.2693ZM89.6228 30C87.6068 30 85.8008 29.734 84.2048 29.202C82.6368 28.642 81.3908 27.704 80.4668 26.388C79.5708 25.072 79.1228 23.266 79.1228 20.97V15.51H75.8048C75.4968 15.51 75.2308 15.398 75.0068 15.174C74.7828 14.95 74.6708 14.684 74.6708 14.376V9.29399C74.6708 8.98599 74.7828 8.71999 75.0068 8.49599C75.2308 8.27199 75.4968 8.15999 75.8048 8.15999H79.1228V1.31399C79.1228 1.00599 79.2348 0.739995 79.4588 0.515994C79.6828 0.291994 79.9488 0.179993 80.2568 0.179993H87.6068C87.9148 0.179993 88.1808 0.291994 88.4048 0.515994C88.6288 0.739995 88.7408 1.00599 88.7408 1.31399V8.15999H94.0328C94.3408 8.15999 94.6068 8.27199 94.8308 8.49599C95.0548 8.71999 95.1668 8.98599 95.1668 9.29399V14.376C95.1668 14.684 95.0548 14.95 94.8308 15.174C94.6068 15.398 94.3408 15.51 94.0328 15.51H88.7408V20.13C88.7408 20.774 88.8808 21.292 89.1608 21.684C89.4688 22.048 89.9308 22.23 90.5468 22.23H94.3688C94.6768 22.23 94.9428 22.342 95.1668 22.566C95.3908 22.79 95.5028 23.056 95.5028 23.364V28.866C95.5028 29.174 95.3908 29.44 95.1668 29.664C94.9428 29.888 94.6768 30 94.3688 30H89.6228ZM105.424 30.42C103.828 30.42 102.414 30.126 101.182 29.538C99.9503 28.95 98.9843 28.152 98.2843 27.144C97.6123 26.136 97.2763 25.002 97.2763 23.742C97.2763 21.698 98.1023 20.102 99.7543 18.954C101.434 17.778 103.674 16.952 106.474 16.476L110.926 15.762V15.72C110.926 14.992 110.856 14.46 110.716 14.124C110.604 13.788 110.254 13.62 109.666 13.62C109.274 13.62 108.952 13.704 108.7 13.872C108.476 14.012 108.224 14.222 107.944 14.502C107.636 14.81 107.244 14.964 106.768 14.964H99.6283C99.3483 14.964 99.1103 14.88 98.9143 14.712C98.7463 14.544 98.6763 14.32 98.7043 14.04C98.7323 13.508 98.9563 12.892 99.3763 12.192C99.7963 11.464 100.44 10.764 101.308 10.092C102.204 9.41999 103.338 8.85999 104.71 8.41199C106.11 7.96399 107.79 7.73999 109.75 7.73999C111.654 7.73999 113.306 7.94999 114.706 8.36999C116.134 8.76199 117.31 9.34999 118.234 10.134C119.158 10.89 119.844 11.842 120.292 12.99C120.768 14.11 121.006 15.384 121.006 16.812V28.866C121.006 29.174 120.894 29.44 120.67 29.664C120.446 29.888 120.18 30 119.872 30H112.522C112.214 30 111.948 29.888 111.724 29.664C111.5 29.44 111.388 29.174 111.388 28.866V27.69C110.996 28.25 110.492 28.74 109.876 29.16C109.288 29.552 108.616 29.86 107.86 30.084C107.104 30.308 106.292 30.42 105.424 30.42ZM108.322 24.204C108.882 24.204 109.358 24.092 109.75 23.868C110.17 23.644 110.492 23.294 110.716 22.818C110.94 22.314 111.052 21.698 111.052 20.97V20.928L108.574 21.474C107.846 21.642 107.356 21.866 107.104 22.146C106.852 22.426 106.726 22.72 106.726 23.028C106.726 23.224 106.782 23.42 106.894 23.616C107.034 23.784 107.216 23.924 107.44 24.036C107.692 24.148 107.986 24.204 108.322 24.204ZM139.363 30.42C137.907 30.42 136.675 30.196 135.667 29.748C134.659 29.272 133.819 28.656 133.147 27.9V28.866C133.147 29.174 133.035 29.44 132.811 29.664C132.587 29.888 132.321 30 132.013 30H124.873C124.565 30 124.299 29.888 124.075 29.664C123.851 29.44 123.739 29.174 123.739 28.866V1.31399C123.739 1.00599 123.851 0.739995 124.075 0.515994C124.299 0.291994 124.565 0.179993 124.873 0.179993H132.643C132.951 0.179993 133.217 0.291994 133.441 0.515994C133.665 0.739995 133.777 1.00599 133.777 1.31399V9.71399C134.449 9.09799 135.247 8.62199 136.171 8.28599C137.123 7.92199 138.187 7.73999 139.363 7.73999C140.595 7.73999 141.729 7.93599 142.765 8.32799C143.829 8.71999 144.753 9.30799 145.537 10.092C146.349 10.876 146.993 11.884 147.469 13.116C147.945 14.32 148.211 15.748 148.267 17.4C148.295 18.016 148.309 18.562 148.309 19.038C148.309 19.514 148.295 20.074 148.267 20.718C148.183 22.482 147.903 23.98 147.427 25.212C146.951 26.444 146.307 27.452 145.495 28.236C144.711 28.992 143.801 29.552 142.765 29.916C141.729 30.252 140.595 30.42 139.363 30.42ZM135.877 22.902C136.409 22.902 136.815 22.804 137.095 22.608C137.375 22.412 137.571 22.132 137.683 21.768C137.823 21.404 137.921 20.97 137.977 20.466C138.061 19.542 138.061 18.618 137.977 17.694C137.921 17.19 137.823 16.756 137.683 16.392C137.571 16.028 137.375 15.748 137.095 15.552C136.815 15.356 136.409 15.258 135.877 15.258C135.401 15.258 135.009 15.342 134.701 15.51C134.421 15.678 134.197 15.916 134.029 16.224C133.889 16.532 133.805 16.91 133.777 17.358C133.749 17.974 133.735 18.492 133.735 18.912C133.735 19.304 133.749 19.822 133.777 20.466C133.805 20.97 133.875 21.404 133.987 21.768C134.127 22.132 134.351 22.412 134.659 22.608C134.967 22.804 135.373 22.902 135.877 22.902ZM151.801 30C151.493 30 151.227 29.888 151.003 29.664C150.779 29.44 150.667 29.174 150.667 28.866V1.31399C150.667 1.00599 150.779 0.739995 151.003 0.515994C151.227 0.291994 151.493 0.179993 151.801 0.179993H159.319C159.627 0.179993 159.893 0.291994 160.117 0.515994C160.341 0.739995 160.453 1.00599 160.453 1.31399V28.866C160.453 29.174 160.341 29.44 160.117 29.664C159.893 29.888 159.627 30 159.319 30H151.801ZM174.701 30.42C171.033 30.42 168.107 29.524 165.923 27.732C163.767 25.912 162.689 23.042 162.689 19.122C162.689 19.066 162.689 19.01 162.689 18.954C162.689 18.898 162.689 18.856 162.689 18.828C162.745 16.42 163.263 14.39 164.243 12.738C165.251 11.086 166.637 9.83999 168.401 8.99999C170.193 8.15999 172.279 7.73999 174.659 7.73999C177.403 7.73999 179.657 8.27199 181.421 9.33599C183.185 10.372 184.487 11.758 185.327 13.494C186.195 15.202 186.629 17.092 186.629 19.164V20.424C186.629 20.732 186.517 20.998 186.293 21.222C186.069 21.446 185.803 21.558 185.495 21.558H172.979C172.979 21.586 172.979 21.614 172.979 21.642C172.979 21.67 172.979 21.712 172.979 21.768C172.979 22.328 173.021 22.804 173.105 23.196C173.217 23.56 173.399 23.84 173.651 24.036C173.903 24.232 174.225 24.33 174.617 24.33C174.785 24.33 174.925 24.302 175.037 24.246C175.177 24.19 175.303 24.106 175.415 23.994C175.555 23.854 175.695 23.714 175.835 23.574C176.087 23.322 176.297 23.168 176.465 23.112C176.633 23.028 176.885 22.986 177.221 22.986H185.159C185.439 22.986 185.663 23.07 185.831 23.238C186.027 23.406 186.111 23.63 186.083 23.91C186.055 24.442 185.803 25.086 185.327 25.842C184.879 26.57 184.193 27.284 183.269 27.984C182.345 28.684 181.169 29.272 179.741 29.748C178.313 30.196 176.633 30.42 174.701 30.42ZM172.979 16.308H176.339V16.266C176.339 15.65 176.269 15.146 176.129 14.754C176.017 14.362 175.835 14.082 175.583 13.914C175.331 13.718 175.023 13.62 174.659 13.62C174.295 13.62 173.987 13.718 173.735 13.914C173.483 14.082 173.287 14.362 173.147 14.754C173.035 15.146 172.979 15.65 172.979 16.266V16.308Z" fill="#CFEFDC"/>
</g>
<defs>
<clipPath id="clip0_731_92">
<rect width="187" height="31" fill="white"/>
</clipPath>
</defs>
</svg>
