<svg width="206" height="74" viewBox="0 0 206 74" fill="none" xmlns="http://www.w3.org/2000/svg">
<path d="M26 72.9C24 72.9 22.3 72.4333 20.9 71.5C19.5 70.5 18.3667 68.9333 17.5 66.8L3.4 31.9C2.66667 30.0333 2.43333 28.4 2.7 27C2.96667 25.5333 3.66667 24.3667 4.8 23.5C6 22.5667 7.63333 22.1 9.7 22.1C11.4333 22.1 12.8667 22.5333 14 23.4C15.1333 24.2 16.1 25.7667 16.9 28.1L27.9 57.4H25.6L37 26.8C37.5333 25.2 38.3 24.0333 39.3 23.3C40.3667 22.5 41.7333 22.1 43.4 22.1C45.0667 22.1 46.4 22.5 47.4 23.3C48.4667 24.1 49.3 25.2667 49.9 26.8L61.1 57.4H59.2L70.1 27.7C70.9 25.5667 71.9333 24.1 73.2 23.3C74.4667 22.5 75.8333 22.1 77.3 22.1C79.1667 22.1 80.6 22.5667 81.6 23.5C82.6667 24.4333 83.2667 25.6333 83.4 27.1C83.6 28.5667 83.3333 30.1667 82.6 31.9L68.6 66.8C67.8 68.8667 66.6667 70.4 65.2 71.4C63.8 72.4 62.1 72.9 60.1 72.9C58.1667 72.9 56.4667 72.4 55 71.4C53.6 70.4 52.4667 68.8667 51.6 66.8L39.6 35.6H46.1L34.4 66.7C33.6 68.7667 32.5 70.3333 31.1 71.4C29.7 72.4 28 72.9 26 72.9ZM101.361 73.1C96.0943 73.1 91.4943 72.0667 87.5609 70C83.6943 67.9333 80.6943 64.9667 78.5609 61.1C76.4276 57.2333 75.3609 52.6667 75.3609 47.4C75.3609 43.4667 75.9609 39.9333 77.1609 36.8C78.3609 33.6667 80.0943 31 82.3609 28.8C84.6943 26.5333 87.4609 24.8333 90.6609 23.7C93.8609 22.5 97.4276 21.9 101.361 21.9C106.628 21.9 111.194 22.9333 115.061 25C118.994 27.0667 122.028 30 124.161 33.8C126.361 37.6 127.461 42.1333 127.461 47.4C127.461 51.4 126.828 54.9667 125.561 58.1C124.361 61.2333 122.628 63.9333 120.361 66.2C118.094 68.4667 115.328 70.2 112.061 71.4C108.861 72.5333 105.294 73.1 101.361 73.1ZM101.361 61.8C103.561 61.8 105.461 61.2667 107.061 60.2C108.661 59.1333 109.928 57.5667 110.861 55.5C111.794 53.3667 112.261 50.6667 112.261 47.4C112.261 42.5333 111.261 38.9667 109.261 36.7C107.261 34.3667 104.628 33.2 101.361 33.2C99.2276 33.2 97.3276 33.7 95.6609 34.7C94.0609 35.7 92.7943 37.2667 91.8609 39.4C90.9943 41.4667 90.5609 44.1333 90.5609 47.4C90.5609 52.2667 91.5609 55.9 93.5609 58.3C95.5609 60.6333 98.1609 61.8 101.361 61.8ZM147.248 73.1C141.981 73.1 137.381 72.0667 133.448 70C129.581 67.9333 126.581 64.9667 124.448 61.1C122.314 57.2333 121.248 52.6667 121.248 47.4C121.248 43.4667 121.848 39.9333 123.048 36.8C124.248 33.6667 125.981 31 128.248 28.8C130.581 26.5333 133.348 24.8333 136.548 23.7C139.748 22.5 143.314 21.9 147.248 21.9C152.514 21.9 157.081 22.9333 160.948 25C164.881 27.0667 167.914 30 170.048 33.8C172.248 37.6 173.348 42.1333 173.348 47.4C173.348 51.4 172.714 54.9667 171.448 58.1C170.248 61.2333 168.514 63.9333 166.248 66.2C163.981 68.4667 161.214 70.2 157.948 71.4C154.748 72.5333 151.181 73.1 147.248 73.1ZM147.248 61.8C149.448 61.8 151.348 61.2667 152.948 60.2C154.548 59.1333 155.814 57.5667 156.748 55.5C157.681 53.3667 158.148 50.6667 158.148 47.4C158.148 42.5333 157.148 38.9667 155.148 36.7C153.148 34.3667 150.514 33.2 147.248 33.2C145.114 33.2 143.214 33.7 141.548 34.7C139.948 35.7 138.681 37.2667 137.748 39.4C136.881 41.4667 136.448 44.1333 136.448 47.4C136.448 52.2667 137.448 55.9 139.448 58.3C141.448 60.6333 144.048 61.8 147.248 61.8ZM180.446 72.9C177.979 72.9 176.079 72.2333 174.746 70.9C173.479 69.5667 172.846 67.6667 172.846 65.2V34.2H169.246C167.379 34.2 165.913 33.7 164.846 32.7C163.846 31.7 163.346 30.3333 163.346 28.6C163.346 26.7333 163.846 25.3333 164.846 24.4C165.913 23.4 167.379 22.9 169.246 22.9H177.246L172.846 26.9V23.8C172.846 16.6667 174.613 11.3333 178.146 7.8C181.746 4.26666 187.013 2.13333 193.946 1.4L197.146 1.09999C198.879 0.966663 200.246 1.23333 201.246 1.9C202.313 2.56666 203.013 3.43333 203.346 4.5C203.679 5.56666 203.746 6.66666 203.546 7.8C203.346 8.86666 202.879 9.83333 202.146 10.7C201.479 11.5 200.546 11.9333 199.346 12L197.946 12.1C194.346 12.3667 191.779 13.2333 190.246 14.7C188.713 16.1 187.946 18.2667 187.946 21.2V24.6L186.046 22.9H195.046C196.979 22.9 198.446 23.4 199.446 24.4C200.446 25.3333 200.946 26.7333 200.946 28.6C200.946 30.3333 200.446 31.7 199.446 32.7C198.446 33.7 196.979 34.2 195.046 34.2H187.946V65.2C187.946 70.3333 185.446 72.9 180.446 72.9Z" fill="white"/>
</svg>
